<?xml version="1.0" encoding="UTF-8"?>
<svg id="Camada_1" xmlns="http://www.w3.org/2000/svg" viewBox="0 0 753.28 140.4">
  <path d="M5.83,130.59c-1.97-4.56-3.25-10.1-3.83-16.67-.91-9.74-1.5-18.53-1.68-26.29-.22-7.77-.33-14.51-.33-20.28,0-13.24.47-27.42,1.42-42.56l.55-8.68c0-1.17.47-2.04,1.46-2.59l.33-.18c.98-.36,1.97-.58,2.92-.58,1.31,0,2.59.36,3.79,1.09l.95.8c.33.4.47.88.47,1.5l-.55,9.19c-.8,16.56-1.28,33.3-1.39,50.25v2.55c0,6.38.15,12.98.47,19.8l.07,1.6c.04,1.6.11,3.83.25,6.64.15,2.81.4,5.83.8,9.04.36,3.25.91,6.24,1.64,9.01.69,2.77,1.57,4.81,2.59,6.13,1.02,1.31,2.12,1.97,3.28,1.97.44,0,.91-.11,1.39-.25,3.43-1.35,6.46-4.45,9.08-9.3.84-1.53,2.08-4.01,3.65-7.33,3.9-8.02,7.62-16.16,11.09-24.4,4.89-12.07,9.23-23.34,13.02-33.73l2.33-6.2c9.55-26.07,15.64-39.2,18.27-39.35h.44c.4,0,.8.15,1.17.51.36.33.55.73.55,1.24,0,.36-.11.69-.36,1.02-.62.77-1.17,1.57-1.71,2.41-2.73,4.27-7.37,16.19-13.86,35.78-4.27,13.06-8.97,26.59-14.11,40.59-4.05,10.61-8.57,21.01-13.64,31.18-2.99,6.31-6.35,10.79-10.07,13.46-2.3,1.64-4.96,2.44-7.99,2.44-5.62-.25-9.77-3.54-12.47-9.81Z"/>
  <path d="M84.32,104.01c-2.77-1.39-4.34-4.3-4.7-8.75-.07-1.17-.11-2.26-.11-3.32,0-.62,0-1.24.04-1.82.29-6.53,1.39-13.75,3.25-21.66.33-1.64.95-2.92,1.9-3.83.62-.58,1.46-.88,2.55-.88.55,0,1.17.07,1.82.22,1.82.51,2.84,1.39,3.06,2.63.07.36.07.73.07,1.13,0,.91-.15,1.86-.47,2.92-.55,2.04-1.24,4.81-2.04,8.35-1.68,7.59-2.52,13.57-2.52,17.91,0,.91.07,1.57.18,1.97.11.44.26.69.44.77.15.11.29.15.44.15.66,0,2.01-.91,4.08-2.7l.44-.36c1.75-1.5,3.39-3.1,4.92-4.78,4.63-5.14,8.68-10.36,12.18-15.57l2.55-3.87c.26-.36.58-.55.98-.55.22,0,.44.07.66.22.36.22.51.55.51.91,0,.26-.04.47-.18.69l-1.35,1.93c-5.03,7.4-9.41,13.49-13.09,18.2-5.47,7.07-9.88,10.61-13.17,10.61-.8,0-1.6-.18-2.44-.51ZM88.29,55.94c-.62-.55-.95-1.2-.95-2.01l.11-1.86c.11-.91.55-1.64,1.31-2.26.84-.69,1.79-1.02,2.88-1.02.98,0,1.79.26,2.41.8.62.51.95,1.17.95,1.97l-.15,1.9c-.07.69-.36,1.35-.91,1.9-.8.84-1.82,1.31-3.1,1.39-1.06,0-1.93-.26-2.55-.8Z"/>
  <path d="M113.24,103.24c-.47,0-.98-.11-1.5-.29-1.35-.69-2.22-1.9-2.66-3.54-.4-1.5-.62-2.92-.62-4.23,0-2.15.11-4.16.36-5.98.69-5.32,1.82-10.76,3.39-16.26.66-2.44,1.24-4.12,1.71-5.07.8-2.37,2.15-3.54,4.05-3.54.47,0,1.02.04,1.6.15,1.82.47,2.73,1.68,2.73,3.61,0,.62-.11,1.28-.36,1.9l-1.5,5.25c-.95,3.46-1.97,8.21-3.06,14.15l.4-.73c3.17-5.51,5.76-10.1,7.77-13.79,1.6-3.06,3.43-6.09,5.51-9.08l.29-.36c.69-1.06,1.5-2.04,2.33-2.88,1.02-1.02,2.3-1.57,3.83-1.57,2.3,0,3.94,1.09,4.89,3.21.36,1.06.55,2.19.55,3.36-.04,1.17-.11,2.33-.22,3.46-.11.73-.15,1.42-.18,2.12-.18,2.22-.4,4.41-.69,6.6-.44,3.57-.69,6.09-.69,7.62,0,2.41.15,4.08.36,5.03.18.77.51,1.17.95,1.17.73,0,1.82-.66,3.32-1.97,2.37-2.08,4.96-4.81,7.77-8.13,2.48-3.14,4.59-6.2,6.31-9.12l.91-1.68c.29-.51.69-.73,1.2-.73.22,0,.47.04.69.15.47.26.69.69.69,1.2,0,.29-.07.55-.22.84l-4.59,6.45c-2.04,2.84-3.14,4.41-3.25,4.63-1.53,2.19-3.39,4.56-5.54,7.08-1.2,1.42-2.55,2.73-4.05,3.94s-3.25,1.86-5.18,1.93c-1.93-.11-3.43-.91-4.49-2.41-2.04-2.84-3.06-6.71-3.06-11.6,0-3.54.51-7.84,1.53-12.87.11-.47.22-.98.33-1.5l.07-.29c.07-.4.11-.91.11-1.46,0-.47-.11-.73-.36-.73-.18,0-.47.26-.88.73-2.74,3.32-5.21,6.86-7.37,10.69-2.08,3.83-3.98,7.66-5.62,11.49l-.11.22c-1.17,2.44-2.01,4.7-2.59,6.75-.29,1.2-.69,2.37-1.2,3.46-.77,1.6-1.93,2.48-3.5,2.63h-.18Z"/>
  <path d="M163.42,104.01c-2.77-1.39-4.34-4.3-4.7-8.75-.07-1.17-.11-2.26-.11-3.32,0-.62,0-1.24.04-1.82.29-6.53,1.39-13.75,3.25-21.66.33-1.64.95-2.92,1.9-3.83.62-.58,1.46-.88,2.55-.88.55,0,1.17.07,1.82.22,1.82.51,2.84,1.39,3.06,2.63.07.36.07.73.07,1.13,0,.91-.15,1.86-.47,2.92-.55,2.04-1.24,4.81-2.04,8.35-1.68,7.59-2.52,13.57-2.52,17.91,0,.91.07,1.57.18,1.97.11.44.26.69.44.77.15.11.29.15.44.15.66,0,2.01-.91,4.08-2.7l.44-.36c1.75-1.5,3.39-3.1,4.92-4.78,4.63-5.14,8.68-10.36,12.18-15.57l2.55-3.87c.26-.36.58-.55.98-.55.22,0,.44.07.66.22.36.22.51.55.51.91,0,.26-.04.47-.18.69l-1.35,1.93c-5.03,7.4-9.41,13.49-13.09,18.2-5.47,7.07-9.88,10.61-13.17,10.61-.8,0-1.6-.18-2.44-.51ZM167.4,55.94c-.62-.55-.95-1.2-.95-2.01l.11-1.86c.11-.91.55-1.64,1.31-2.26.84-.69,1.79-1.02,2.88-1.02.98,0,1.79.26,2.41.8.62.51.95,1.17.95,1.97l-.15,1.9c-.07.69-.36,1.35-.91,1.9-.8.84-1.82,1.31-3.1,1.39-1.06,0-1.93-.26-2.55-.8Z"/>
  <path d="M194.53,104.81c-2.08-.98-3.87-2.41-5.32-4.27-2.41-3.21-3.61-7.04-3.61-11.49l.04-.95c.25-4.12,1.2-7.88,2.84-11.27,2.55-5.47,6.05-9.88,10.5-13.2,2.99-2.22,5.91-3.35,8.64-3.35,2.15,0,3.98.62,5.54,1.9.73.62,1.28,1.28,1.64,1.97.55,1.17.8,2.22.84,3.14l.04,1.35c0,1.13-.07,2.01-.22,2.63l-.29,1.39c-.18.58-.55.84-1.13.84-.44,0-.77-.15-.98-.51-.15-.22-.22-.47-.22-.77l.04-1.31c0-.8-.15-1.79-.47-2.99-.22-.66-.51-1.2-.91-1.64-.4-.44-.84-.66-1.31-.66h-.29c-1.82,0-3.68.98-5.62,2.99-1.79,1.86-3.32,3.98-4.52,6.31-2.19,4.23-3.76,8.24-4.6,12.07-.47,2.08-.73,3.79-.73,5.21,0,1.13.11,2.22.33,3.32.29,1.28.84,2.41,1.64,3.39,1.2,1.28,2.3,2.01,3.32,2.12,1.02.15,1.75.18,2.19.18,1.2,0,2.37-.22,3.54-.69,2.66-1.09,5.11-2.59,7.37-4.52,2.22-1.9,4.3-3.9,6.2-5.98,4.01-4.27,7.69-8.79,11.09-13.57l2.84-3.98c.26-.33.55-.47.95-.47.22,0,.47.07.69.22.26.18.4.36.44.55.04.18.04.29.04.36,0,.26-.07.47-.26.73l-2.84,3.94c-4.05,5.98-8.46,11.67-13.31,17.03-6.16,6.86-12.03,10.61-17.61,11.23l-1.06.04c-1.86,0-3.68-.4-5.43-1.28Z"/>
  <path d="M235.45,104.01c-2.77-1.39-4.34-4.3-4.7-8.75-.07-1.17-.11-2.26-.11-3.32,0-.62,0-1.24.04-1.82.29-6.53,1.39-13.75,3.25-21.66.33-1.64.95-2.92,1.9-3.83.62-.58,1.46-.88,2.55-.88.55,0,1.17.07,1.82.22,1.82.51,2.84,1.39,3.06,2.63.07.36.07.73.07,1.13,0,.91-.15,1.86-.47,2.92-.55,2.04-1.24,4.81-2.04,8.35-1.68,7.59-2.52,13.57-2.52,17.91,0,.91.07,1.57.18,1.97.11.44.26.69.44.77.15.11.29.15.44.15.66,0,2.01-.91,4.08-2.7l.44-.36c1.75-1.5,3.39-3.1,4.92-4.78,4.63-5.14,8.68-10.36,12.18-15.57l2.55-3.87c.25-.36.58-.55.98-.55.22,0,.44.07.66.22.37.22.51.55.51.91,0,.26-.04.47-.18.69l-1.35,1.93c-5.03,7.4-9.41,13.49-13.09,18.2-5.47,7.07-9.88,10.61-13.17,10.61-.8,0-1.6-.18-2.44-.51ZM239.42,55.94c-.62-.55-.95-1.2-.95-2.01l.11-1.86c.11-.91.55-1.64,1.31-2.26.84-.69,1.79-1.02,2.88-1.02.98,0,1.79.26,2.41.8.62.51.95,1.17.95,1.97l-.15,1.9c-.07.69-.36,1.35-.91,1.9-.8.84-1.82,1.31-3.1,1.39-1.06,0-1.93-.26-2.55-.8Z"/>
  <path d="M284.5,102.19c-1.57-.22-2.7-.95-3.46-2.15-.77-1.2-1.28-2.59-1.5-4.16-.25-1.57-.36-2.99-.36-4.23,0,.47-.47,1.31-1.39,2.52l-.44.58c-.55.84-1.17,1.64-1.86,2.41-1.5,1.68-3.21,2.48-5.07,2.48h-.44c-3.57-.33-6.09-2.41-7.55-6.31-.77-2.01-1.13-4.34-1.13-7,0-1.24.07-2.55.22-3.98.47-3.9,1.39-7.69,2.77-11.34.77-2.19,1.35-3.68,1.79-4.41.77-.95,1.71-1.39,2.88-1.39.11,0,.51,0,1.24.07.69.04,1.57.47,2.55,1.31s1.46,1.82,1.46,2.99c0,.4-.22,1.13-.62,2.22-.77,2.01-1.68,4.81-2.66,8.42-.77,2.48-1.28,5.11-1.53,7.91-.07.47-.07.95-.07,1.42,0,.62.04,1.35.15,2.26.11.91.62,1.68,1.53,2.3l.11.04.18.11c1.39,0,3.14-1.9,5.29-5.65l.33-.55c1.02-1.71,1.97-3.46,2.88-5.32.44-3.43,1.31-8.02,2.59-13.86.33-1.42.66-2.77,1.06-4.05l.36-1.24c.33-1.13,1.24-1.68,2.77-1.68.07,0,.44,0,1.13.04.69.04,1.64.36,2.81.98s1.82,1.35,1.97,2.26c0,.11-.07.44-.18,1.02-.25,1.24-.66,2.84-1.2,4.89-3.21,11.52-4.89,19.91-5.07,25.2,0,.88.22,1.31.62,1.31h.33c.4-.04,1.35-.8,2.81-2.26.11-.15.25-.25.36-.36,4.45-4.38,8.72-9.92,12.8-16.67l3.1-5.25c.33-.55.77-.84,1.39-.84.25,0,.47.07.73.18.55.33.84.77.84,1.39,0,.26-.07.47-.18.73l-.22.33c-1.13,1.5-2.95,4.12-5.51,7.88l-3.57,5.14c-2.62,3.76-4.96,6.86-6.96,9.34-2.55,3.32-5.07,4.96-7.55,4.96h-.51Z"/>
  <path d="M305.58,124.21c-.33-.98-.51-1.97-.51-2.99,0-3.61,2-8.02,6.05-13.24,2.95-4.05,6.05-7.48,9.3-10.28-.77-1.28-1.68-2.41-2.74-3.32-1.09-.91-2.26-1.79-3.46-2.63-1.97-1.24-3.72-2.73-5.25-4.49-2.15-2.81-3.25-5.87-3.25-9.23,0-2.92.77-5.76,2.3-8.46,3.21-5.25,7.7-8.5,13.46-9.7,1.2-.25,2.37-.4,3.54-.4,2.44,0,4.85.58,7.15,1.75,1.42.84,2.63,2.04,3.54,3.65.84,1.5,1.24,2.99,1.24,4.56v.36c-.15,1.68-.62,3.28-1.35,4.74l-.36.58c-.44.66-1.06.98-1.86.98-.4,0-.8-.11-1.2-.33-.66-.47-.98-1.09-.98-1.86,0-.4.11-.8.36-1.2l.22-.4c.44-.8.66-1.6.66-2.48,0-1.09-.4-1.97-1.24-2.59-1.17-.84-2.52-1.24-4.12-1.24s-3.1.44-4.71,1.28c-3.72,2.01-6.38,4.96-8.02,8.9-.44,1.2-.66,2.41-.66,3.57,0,.73.15,1.75.47,3.03s1.17,2.7,2.59,4.19c1.57,1.53,3.28,2.88,5.14,4.01,1.31.84,2.59,1.71,3.79,2.7t.04.04s0,.04.04.07l4.27-2.81c10.14-6.46,18.01-12.29,23.63-17.47l1.46-1.31c.26-.26.58-.36.91-.36.36,0,.66.15.91.4.26.26.37.55.37.84v.33c0,.18-.15.4-.4.66l-1.46,1.39c-5.51,5.21-12.33,10.65-20.5,16.23-2.22,1.5-4.52,3.06-6.89,4.74,2.12,2.74,3.17,5.87,3.17,9.37,0,.69-.07,1.64-.25,2.88-.33,2.77-1.5,5.62-3.43,8.53-3.76,5.69-8.46,9.23-14.11,10.58-.55.11-1.13.18-1.68.18-3.06,0-5.14-1.28-6.16-3.76ZM313.75,121.66c1.86-1.53,3.39-3.35,4.63-5.51,2.48-4.23,3.72-8.24,3.72-12.03,0-.88-.07-1.75-.25-2.66-.95.98-1.9,1.97-2.81,2.99-3.65,4.12-6.46,8.28-8.39,12.44-.84,1.86-1.24,3.39-1.24,4.63v.66c0,.36.22.66.69.91.18.07.36.11.58.11.8,0,1.82-.51,3.06-1.53Z"/>
  <path d="M467.87,131.54c-3.83-.33-5.91-3.28-6.2-8.86-.07-1.13-.07-2.19-.07-3.21s0-1.97.07-2.88l.04-.8c.26-5.83.73-11.67,1.5-17.47.55-4.34,1.57-11.6,3.1-21.74,1.28-8.57,2.55-17.14,3.72-25.71,1.2-8.53,2.01-16.99,2.41-25.38l.04-.66c.11-2.01.15-3.68.15-4.96,0-7.62-1.17-11.45-3.5-11.45h-.11c-1.79.29-3.43,1.31-5,3.1-1.57,1.79-3.03,3.83-4.3,6.2-1.28,2.37-2.41,4.52-3.35,6.53l-1.28,2.59c-3.61,7.11-6.93,14.37-9.96,21.74l-.91,2.19c-1.68,3.9-3.28,7.84-4.78,11.82l-.44,1.2c-1.42,3.65-2.77,7.29-4.01,10.98-.33.98-.95,1.68-1.79,2.12-.51.29-1.06.44-1.64.44-.36,0-.73-.07-1.09-.18-1.5-.55-2.33-1.6-2.52-3.14-.22-3.98-.95-12.62-2.19-25.97-1.24-13.31-1.97-20.71-2.15-22.17-.66-4.49-1.6-7.99-2.88-10.43-.55-1.06-1.17-1.6-1.82-1.6-1.5,0-3.32,2.74-5.54,8.21-2.44,6.27-4.56,12.73-6.31,19.33-1.79,6.64-3.43,13.31-4.92,19.98-2.33,9.96-4.52,19.95-6.6,30.05-2.37,11.38-4.12,21.84-5.32,31.47-.11,1.13-.25,2.22-.51,3.28-.25,1.09-.77,2.04-1.53,2.84-.84.84-1.82,1.24-2.92,1.24-.98,0-1.86-.36-2.62-1.09-1.06-1.06-1.71-2.48-1.93-4.27-.11-.88-.18-1.79-.18-2.7,0-2.22.33-5.03,1.02-8.42l.44-2.63c1.2-8.57,2.48-17.1,3.83-25.6.8-5.07,1.57-10.1,2.33-15.17.62-3.68,1.6-10.76,3.03-21.15.88-6.78,1.64-13.86,2.22-21.15.29-4.01.47-6.89.47-8.68,0-.98-.04-1.93-.07-2.92-.11-2.84-.66-5.58-1.64-8.24-.11-.18-.4-.26-.8-.26-.18,0-.4,0-.66.07-.26.04-.44.11-.62.15-1.17.51-2.19,1.24-3.03,2.15-.88.95-1.86,1.68-2.99,2.15-.44.15-.8.22-1.13.22-.8,0-1.2-.58-1.2-1.75,0-.44.11-1.06.33-1.82.18-.77.44-1.39.77-1.9,1.5-2.37,3.39-4.3,5.73-5.83,1.53-.91,2.99-1.39,4.38-1.39.51,0,1.31.15,2.48.44,1.13.29,2.37,1.2,3.68,2.73,1.31,1.57,2.22,3.36,2.7,5.43.84,3.94,1.28,7.69,1.28,11.27v2.15c0,8.46-.69,17.94-2.08,28.41.77-3.32,1.57-6.67,2.41-9.99,1.57-6.75,3.5-13.42,5.8-20.06.69-2.08,1.64-4.3,2.77-6.67s2.59-4.34,4.38-5.83c1.31-1.13,2.88-1.71,4.71-1.71.62,0,1.28.07,1.97.22,5.07,1.35,8.39,6.02,9.96,14,.62,3.32,1.09,6.38,1.35,9.19l.22,2.04c.84,7.04,1.31,14,1.39,20.97v3.28c6.13-12.76,11.2-23.08,15.21-30.96l1.68-3.32c1.46-2.99,3.03-5.94,4.7-8.83,1.64-2.88,3.61-5.54,5.83-7.99,2.19-2.33,4.67-3.5,7.33-3.5,2.04,0,4.01.73,5.94,2.19,2.52,2.15,4.12,4.89,4.81,8.21.58,2.48.84,5.65.84,9.45,0,1.24,0,2.44-.07,3.61v1.06c-.33,8.97-1.17,17.8-2.48,26.44-1.42,10.28-3.32,21.88-5.65,34.79-.98,5.58-1.9,11.12-2.77,16.63-.18,1.24-.4,2.52-.66,3.79-.98,5.11-1.5,9.15-1.5,12.11,0,1.79.15,3.5.47,5.18,0,.07,0,.11.04.15,1.35.69,2.01,1.82,2.01,3.39-.11.98-.47,1.79-1.17,2.41-.69.58-1.46.88-2.37.88h-.22Z"/>
  <path d="M568.2,125.23c-3.68-1.35-7.29-2.37-10.87-3.1-3.68-.58-7.37-.88-11.05-.88-4.52,0-9.01.44-13.53,1.31-2.84.51-5.69,1.24-8.46,2.15l-.11.15c-.77,1.17-1.86,2.12-3.32,2.84-1.06.58-2.15.84-3.25.84-.15,0-.55,0-1.24-.04-.66-.04-1.39-.62-2.19-1.82-.37-.66-.55-1.31-.55-1.97,0-1.13.51-2.15,1.53-3.14.33-.26,1.09-.66,2.33-1.2,1.5-.69,2.3-1.13,2.41-1.35.44-.98.8-2.01,1.17-3.06,2.15-6.64,4.23-15.97,6.31-28.01,2.66-15.21,5.18-32.38,7.59-51.46,1.35-9.81,2.37-17.58,3.06-23.38.36-3.32.66-5.51.84-6.53.25-.84.77-1.46,1.46-1.9l.37-.22c.98-.4,1.93-.62,2.84-.62,1.35,0,2.62.47,3.79,1.39v.04c.07.04.18.15.37.33.22.22.4.51.58.88.22.36.33.8.33,1.31-.07,1.02-.22,2.3-.44,3.87l-.36,2.74c-3.65,27.35-7.91,52.37-12.73,75.05-2.48,11.67-4.89,20.79-7.26,27.42,5.29-1.2,10.72-1.79,16.41-1.79,4.89,0,9.77.47,14.66,1.46,3.36.8,6.78,1.9,10.28,3.32,6.89,2.74,12.29,4.08,16.23,4.08.77,0,1.53-.04,2.3-.11,1.53-.22,2.95-1.02,4.19-2.41l1.75-1.79c.47-.47,1.02-.69,1.6-.69s1.13.22,1.57.62c.47.47.69,1.06.69,1.68,0,.51-.18,1.02-.58,1.46l-1.6,1.75c-.44.62-1.24,1.39-2.37,2.26-1.79,1.46-4.63,2.19-8.46,2.19-4.05,0-9.48-1.2-16.3-3.68Z"/>
  <path d="M577.57,98.98c-1.46-1.53-2.55-3.35-3.28-5.43-.8-2.3-1.2-4.6-1.2-6.93,0-5.91,1.71-11.38,5.18-16.41,1.06-1.64,2.33-3.17,3.76-4.6,3.32-3.21,6.67-4.78,10.03-4.78.66,0,1.79.11,3.39.4,1.64.29,3.14,1.71,4.56,4.23.62,1.35.91,2.66.91,3.9,0,2.04-.88,4.08-2.63,6.16-1.93,2.08-4.23,3.5-6.86,4.27-2.66.77-5.32,1.31-8.06,1.6h-.15c-.33.07-.98,1.9-1.97,5.51l-.04.15c-.4,1.39-.58,2.84-.58,4.3,0,2.04.44,3.65,1.35,4.81.91,1.2,2.19,1.79,3.83,1.79,1.93,0,3.79-.51,5.54-1.53,3.72-2.15,7.4-5.29,11.01-9.41,3.54-4.05,6.24-7.37,8.06-10.03l2.88-4.01c.26-.33.55-.47.95-.47.22,0,.47.04.69.18.33.29.47.62.47.95,0,.25-.07.47-.22.69l-2.88,4.01c-.33.4-.62.84-.95,1.31-6.75,9.59-12.65,16.12-17.65,19.62-2.84,1.97-5.65,2.99-8.46,2.99-3.1,0-5.69-1.09-7.69-3.28ZM587.78,77.57c2.52-.88,4.52-2.3,6.09-4.34.8-1.02,1.2-2.01,1.2-2.88,0-.66-.29-1.2-.91-1.71-.4-.25-.77-.36-1.17-.36-.8,0-1.71.55-2.7,1.6-2.15,2.33-4.01,5.11-5.62,8.39.77-.04,1.82-.29,3.1-.69Z"/>
  <path d="M609.77,103.35c-.73-.91-1.2-2.08-1.42-3.5-.15-1.13-.22-2.41-.22-3.9.11-1.75.25-2.95.36-3.57.26-2.3.62-4.41,1.06-6.35.84-3.9,1.64-7.26,2.41-9.99,1.2-4.63,1.9-7.26,2.12-7.88l.25-.77c.84-1.53,2.12-2.3,3.79-2.3.69,0,1.35.15,2.01.47,1.57.91,2.33,2.26,2.33,4.05-.04.04-.07.26-.11.66l-1.02,3.83c-.33,1.13-.66,2.48-1.06,4.05l-3.54,15.32c3.68-5.76,7.11-12.14,10.21-19.11.44-1.02,1.13-2.52,2.04-4.52,2.33-5.11,3.9-8.1,4.7-9.01.98-1.13,2.19-1.68,3.57-1.68s2.33.25,3.03.77c1.13.91,1.71,2.44,1.71,4.6,0,.91-.07,2.01-.18,3.21l-.18,2.15c-.07,3.9-.66,8.57-1.79,14l-1.5,6.86c1.71-2.84,3.57-6.67,5.58-11.41.84-2.08,1.71-3.9,2.62-5.47.8-1.39,1.86-2.55,3.14-3.54,1.02-.77,2.12-1.13,3.32-1.13.37,0,.73.04,1.09.11,1.2.26,2.15.73,2.77,1.39,1.06,1.09,1.6,3.17,1.6,6.2,0,.58-.04,1.09-.11,1.57-.44,3.36-.88,6.13-1.39,8.35-.29,1.46-.44,2.66-.44,3.65,0,1.42.37,2.11,1.13,2.11.37,0,.73-.15,1.06-.4,2.08-1.42,4.59-4.16,7.59-8.24,3.32-4.38,5.18-6.82,5.58-7.4.77-1.06,1.64-2.26,2.66-3.61.22-.26.47-.36.8-.36.15,0,.29.04.44.15.33.26.51.55.51.88,0,.11-.04.22-.07.33-1.93,2.95-3.97,5.83-6.16,8.64l-3.17,4.3c-4.12,5.91-7.33,9.34-9.63,10.25-.55.22-1.06.33-1.6.33-.88,0-1.75-.26-2.66-.8-1.79-1.2-2.92-2.88-3.39-5.03-.29-1.35-.44-2.77-.44-4.19,0-2.37.4-5.62,1.24-9.74.29-1.35.44-2.26.44-2.73,0-.18-.04-.26-.11-.26-.18,0-.62.51-1.31,1.5-.4.58-1.5,2.59-3.25,6.05-1.79,3.46-3.94,8.02-6.46,13.6l-.33.73c-.4,1.13-.98,2.15-1.71,3.14-.69.88-1.68,1.31-2.99,1.31h-.4c-1.82-.29-2.92-1.17-3.32-2.63-.33-1.17-.47-2.33-.47-3.54,0-3.46.18-6.6.58-9.37.47-3.68,1.02-7.55,1.64-11.67.44-2.63.69-4.49.77-5.54-.95,1.53-1.82,3.1-2.63,4.67-.47.91-.95,1.79-1.42,2.66-2.52,4.89-5.03,10.1-7.55,15.72-1.24,2.44-2.41,4.92-3.5,7.4-.77,1.75-1.5,3.06-2.12,4.01-.73,1.06-1.75,1.75-3.03,2.04l-.51.04c-1.28,0-2.3-.47-2.99-1.42Z"/>
  <path d="M671.88,84.53c.04-6.13,1.13-11.45,3.21-15.9.62-1.31,1.09-2.15,1.42-2.55.4-.51,1.02-.91,1.9-1.17l-.04-.44c0-.47.18-.91.58-1.28.22-.18.44-.29.69-.36l1.46-.36c1.13-.29,2.3-.44,3.5-.44,2.33,0,4.19.47,5.58,1.42,3.28,2.3,5.03,5.14,5.25,8.57l.04,1.39c0,2.08-.33,4.34-1.06,6.71-.69,2.37-1.57,4.56-2.55,6.6-.88,1.86-2.04,3.76-3.54,5.65s-3.28,3.28-5.29,4.19c-.88.4-1.79.58-2.77.58-5.58,0-8.39-4.19-8.39-12.62ZM683.12,92.08c.62-.33,1.28-.84,1.9-1.53,2.01-2.04,3.57-4.45,4.7-7.18,1.28-3.14,1.93-6.27,1.93-9.34,0-2.81-.77-5.03-2.3-6.64-.4-.4-.84-.69-1.31-.95-1.5-.69-2.81-1.02-3.94-1.02-.47,0-.98.07-1.46.22-.25.11-.4.15-.47.15.22.22.44.51.66.88.51.91.77,1.64.77,2.22s-.15,1.24-.47,1.97c-.15.33-.26.66-.37.98l-1.64,4.19c-1.75,3.98-2.63,7.62-2.63,11.01,0,.47.04,1.2.07,2.22.07.98.58,1.93,1.57,2.84.47.33.98.51,1.46.51.4,0,.91-.18,1.53-.55Z"/>
  <path d="M701.57,124.21c-.33-.98-.51-1.97-.51-2.99,0-3.61,2-8.02,6.05-13.24,2.95-4.05,6.05-7.48,9.3-10.28-.77-1.28-1.68-2.41-2.74-3.32-1.09-.91-2.26-1.79-3.46-2.63-1.97-1.24-3.72-2.73-5.25-4.49-2.15-2.81-3.25-5.87-3.25-9.23,0-2.92.77-5.76,2.3-8.46,3.21-5.25,7.7-8.5,13.46-9.7,1.2-.25,2.37-.4,3.54-.4,2.44,0,4.85.58,7.15,1.75,1.42.84,2.63,2.04,3.54,3.65.84,1.5,1.24,2.99,1.24,4.56v.36c-.15,1.68-.62,3.28-1.35,4.74l-.36.58c-.44.66-1.06.98-1.86.98-.4,0-.8-.11-1.2-.33-.66-.47-.98-1.09-.98-1.86,0-.4.11-.8.36-1.2l.22-.4c.44-.8.66-1.6.66-2.48,0-1.09-.4-1.97-1.24-2.59-1.17-.84-2.52-1.24-4.12-1.24s-3.1.44-4.71,1.28c-3.72,2.01-6.38,4.96-8.02,8.9-.44,1.2-.66,2.41-.66,3.57,0,.73.15,1.75.47,3.03s1.17,2.7,2.59,4.19c1.57,1.53,3.28,2.88,5.14,4.01,1.31.84,2.59,1.71,3.79,2.7t.04.04s0,.04.04.07l4.27-2.81c10.14-6.46,18.01-12.29,23.63-17.47l1.46-1.31c.26-.26.58-.36.91-.36.36,0,.66.15.91.4.26.26.37.55.37.84v.33c0,.18-.15.4-.4.66l-1.46,1.39c-5.51,5.21-12.33,10.65-20.5,16.23-2.22,1.5-4.52,3.06-6.89,4.74,2.12,2.74,3.17,5.87,3.17,9.37,0,.69-.07,1.64-.25,2.88-.33,2.77-1.5,5.62-3.43,8.53-3.76,5.69-8.46,9.23-14.11,10.58-.55.11-1.13.18-1.68.18-3.06,0-5.14-1.28-6.16-3.76ZM709.74,121.66c1.86-1.53,3.39-3.35,4.63-5.51,2.48-4.23,3.72-8.24,3.72-12.03,0-.88-.07-1.75-.25-2.66-.95.98-1.9,1.97-2.81,2.99-3.65,4.12-6.46,8.28-8.39,12.44-.84,1.86-1.24,3.39-1.24,4.63v.66c0,.36.22.66.69.91.18.07.36.11.58.11.8,0,1.82-.51,3.06-1.53Z"/>
</svg>